<svg xmlns="http://www.w3.org/2000/svg" viewBox="0 0 48 48"><circle cx="28.58" cy="15.85" r="7.75" fill="#fae380"/><path fill="#f4d967" d="M36.25,14.72a7.75,7.75,0,0,0-14.56,3.7,6.91,6.91,0,0,0,.08,1.11,7.65,7.65,0,0,1-.94-3.68,7.75,7.75,0,0,1,15.42-1.13Z"/><path fill="#b1d8fa" d="M28.39,20.83a7.61,7.61,0,0,0-15.22,0,7.61,7.61,0,0,0,0,15.22H28.39a7.61,7.61,0,0,0,0-15.22Z"/><path fill="#99c3dd" d="M28.16,19a7.61,7.61,0,0,0-13.55,4.76A7.61,7.61,0,0,0,7,31.33a7.81,7.81,0,0,0,.23,1.88,7.61,7.61,0,0,1,5.94-12.38,7.61,7.61,0,0,1,15-1.88Z"/><rect width="4.8" height="1.5" x="18.46" y="42.61" fill="#211915" transform="rotate(-65 20.861 43.357)"/><rect width="4.8" height="1.5" x="22.69" y="42.61" fill="#211915" transform="rotate(-65 25.095 43.362)"/><rect width="4.8" height="1.5" x="14.23" y="42.61" fill="#211915" transform="rotate(-65 16.635 43.357)"/><path fill="#211915" d="M37.07,15.85a8.49,8.49,0,0,0-16.35-3.19,8.35,8.35,0,0,0-8.26,7.64A8.35,8.35,0,0,0,13.17,37H28.39A8.35,8.35,0,0,0,34,22.41,8.48,8.48,0,0,0,37.07,15.85ZM35.26,28.62a6.88,6.88,0,0,1-6.87,6.87H13.17a6.87,6.87,0,1,1,0-13.74h.74V21a6.87,6.87,0,1,1,13.74,0v.74h.74A6.88,6.88,0,0,1,35.26,28.62ZM29.1,20.3a8.37,8.37,0,0,0-6.82-7.51,7,7,0,1,1,10.45,8.7A8.25,8.25,0,0,0,29.1,20.3Z"/><rect width="1.48" height="3.37" x="25.11" y="2.15" fill="#211915" transform="rotate(-12.83 25.822 3.849)"/><rect width="3.37" height="1.48" x="38.92" y="12.38" fill="#211915" transform="rotate(-12.82 40.618 13.126)"/><rect width="3.37" height="1.48" x="33.46" y="4.68" fill="#211915" transform="rotate(-57.83 35.144 5.414)"/><rect width="1.48" height="3.37" x="38.28" y="20.73" fill="#211915" transform="rotate(-57.83 39.01 22.41)"/><rect width="1.48" height="3.37" x="17.41" y="7.6" fill="#211915" transform="rotate(-57.83 18.142 9.289)"/><path fill="#211915" d="M28.39,34.11V32.64c.16,0,4-.06,4-3.07h1.48C33.89,33.16,30.29,34.11,28.39,34.11Z"/></svg>