<svg xmlns="http://www.w3.org/2000/svg" enable-background="new 0 0 512 512" viewBox="0 0 512 512"><path fill="#ffb800" d="M256,420.5c-90.7,0-164.5-73.8-164.5-164.5c0-90.7,73.8-164.5,164.5-164.5S420.5,165.3,420.5,256C420.5,346.7,346.7,420.5,256,420.5"/><path d="M255.5 52c5.9 0 10.7-4.8 10.7-10.7V11.2c0-5.9-4.8-10.7-10.7-10.7-5.9 0-10.7 4.8-10.7 10.7v30.1C244.8 47.2 249.6 52 255.5 52zM96.7 112c4.2 4.2 10.9 4.2 15.1 0 4.2-4.2 4.2-10.9 0-15.1L90.2 75.3c-4.2-4.2-10.9-4.2-15.1 0-4.2 4.2-4.2 10.9 0 15.1L96.7 112zM470.7 266.4H501c5.9 0 10.7-4.8 10.7-10.7s-4.8-10.7-10.7-10.7h-30.3c-5.9 0-10.7 4.8-10.7 10.7C460 261.7 464.8 266.4 470.7 266.4zM11 266.4h30.3c5.9 0 10.7-4.8 10.7-10.7s-4.8-10.7-10.7-10.7H11c-5.9 0-10.7 4.8-10.7 10.7C.4 261.7 5.1 266.4 11 266.4zM414.9 111.6l21.8-21.8c4.2-4.2 4.2-10.9 0-15.1-4.2-4.2-10.9-4.2-15.1 0l-21.8 21.8c-4.2 4.2-4.2 10.9 0 15.1C404 115.7 410.7 115.7 414.9 111.6zM255.3 459.9c-5.9 0-10.7 4.8-10.7 10.7v30.2c0 5.9 4.8 10.7 10.7 10.7 5.9 0 10.7-4.8 10.7-10.7v-30.2C265.9 464.7 261.1 459.9 255.3 459.9zM414.7 400.7c-4.2-4.2-10.9-4.2-15.1 0-4.2 4.2-4.2 10.9 0 15.1l21 21c4.2 4.2 10.9 4.2 15.1 0 4.2-4.2 4.2-10.9 0-15.1L414.7 400.7zM89.2 437.2l22.3-22.4c4.2-4.2 4.2-10.9 0-15.1s-10.9-4.2-15.1 0l-22.3 22.4c-4.2 4.2-4.2 10.9 0 15.1C78.3 441.4 85 441.4 89.2 437.2zM256 80.8c-96.6 0-175.2 78.6-175.2 175.2 0 96.6 78.6 175.1 175.2 175.1 96.6 0 175.1-78.6 175.1-175.1C431.1 159.4 352.6 80.8 256 80.8zM256 409.8c-84.8 0-153.9-69-153.9-153.8 0-84.8 69-153.9 153.9-153.9 84.8 0 153.8 69 153.8 153.9C409.8 340.8 340.8 409.8 256 409.8z"/><path d="M134.1,266.6c5.9,0,10.7-4.8,10.7-10.7c0-61.3,49.9-111.3,111.3-111.3c5.9,0,10.7-4.8,10.7-10.7c0-5.9-4.8-10.7-10.7-10.7c-73.1,0-132.6,59.5-132.6,132.6C123.4,261.9,128.2,266.6,134.1,266.6z"/></svg>