<svg xmlns="http://www.w3.org/2000/svg" viewBox="0 0 64 64"><path d="M28,60c-.41,0-.83,0-1.25-.07a11.08,11.08,0,0,1-9.61-9.37,10.88,10.88,0,0,1,3.89-10V11a7,7,0,0,1,14,0V40.53A10.89,10.89,0,0,1,39,49,11,11,0,0,1,28,60ZM28,6a5,5,0,0,0-5,5V41a1,1,0,0,1-.4.8,9,9,0,1,0,10.8,0A1,1,0,0,1,33,41V11A5,5,0,0,0,28,6Zm0,50a7,7,0,0,1-3-13.32V24a3,3,0,0,1,6,0V42.68A7,7,0,0,1,28,56Zm0-33a1,1,0,0,0-1,1V43.35a1,1,0,0,1-.67.94,5,5,0,1,0,4.82,8.59A5,5,0,0,0,33,49a5,5,0,0,0-3.33-4.71,1,1,0,0,1-.67-.94V24A1,1,0,0,0,28,23ZM47,4H37V6H47Zm0,4H41v2h6Zm0,4H37v2H47Zm0,4H41v2h6Zm0,4H37v2H47Zm0,4H41v2h6Z" data-name="30 Temperature, Celsius, Degrees, Fahrenheit"/></svg>