<svg xmlns="http://www.w3.org/2000/svg" viewBox="0 0 48 48"><polygon fill="#fae380" points="17.41 40.05 20.61 40.05 19.18 43.57 25.41 37.65 22.21 37.65 24.61 34.45 20.61 34.45 17.41 40.05"/><circle cx="27.95" cy="13.04" r="6.17" fill="#fae380"/><path fill="#f4d967" d="M34.06,12.13a6.17,6.17,0,0,0-11.6,2.95,6.4,6.4,0,0,0,.07.88A6,6,0,0,1,21.78,13a6.17,6.17,0,0,1,12.28-.91Z"/><path fill="#b1d8fa" d="M27.8,17a6.06,6.06,0,0,0-12.12,0,6.06,6.06,0,0,0,0,12.12H27.8A6.06,6.06,0,0,0,27.8,17Z"/><path fill="#99c3dd" d="M27.62,15.5a6.07,6.07,0,0,0-10.79,3.8,6.06,6.06,0,0,0-6.07,6.06,6.16,6.16,0,0,0,.19,1.5A6.07,6.07,0,0,1,15.68,17a6.06,6.06,0,0,1,11.94-1.5Z"/><path fill="#211915" d="M17.44,46.12l2.21-5.42H16.3l3.94-6.9h5.67L23.51,37H27Zm1.1-6.72h3L20.92,41l2.87-2.72H20.92l2.39-3.2H21Z"/><rect width="4.64" height="1.5" x="28.41" y="35.27" fill="#211915" transform="rotate(-64.97 30.734 36.024)"/><rect width="4.64" height="1.5" x="10.24" y="35.27" fill="#211915" transform="rotate(-64.97 12.56 36.019)"/><path fill="#211915" d="M34.88,13a6.91,6.91,0,0,0-13.28-2.7A6.81,6.81,0,0,0,15,16.43,6.81,6.81,0,0,0,15.68,30H27.8a6.81,6.81,0,0,0,4.68-11.76A6.92,6.92,0,0,0,34.88,13ZM28,7.61a5.42,5.42,0,0,1,3.29,9.73,6.54,6.54,0,0,0-2.73-.91,6.81,6.81,0,0,0-5.33-5.94A5.45,5.45,0,0,1,28,7.61ZM27.8,28.52H15.68a5.32,5.32,0,0,1,0-10.63h.75v-.75a5.31,5.31,0,0,1,10.62,0v.75h.75a5.32,5.32,0,0,1,0,10.63Z"/><rect width="1.5" height="3.01" x="25.03" y="1.96" fill="#211915" transform="rotate(-12.83 25.773 3.483)"/><rect width="3.01" height="1.5" x="36.02" y="10.11" fill="#211915" transform="rotate(-12.82 37.54 10.842)"/><rect width="3.01" height="1.5" x="31.68" y="3.98" fill="#211915" transform="rotate(-57.82 33.179 4.724)"/><rect width="1.5" height="3.01" x="35.51" y="16.76" fill="#211915" transform="rotate(-57.82 36.263 18.266)"/><rect width="1.5" height="3.01" x="18.89" y="6.31" fill="#211915" transform="rotate(-57.84 19.643 7.805)"/><path fill="#211915" d="M27.8,26.24v1.5c1.57,0,4.54-.79,4.54-3.78h-1.5C30.84,26.2,27.92,26.24,27.8,26.24Z"/></svg>