<svg xmlns="http://www.w3.org/2000/svg" viewBox="0 0 64 64"><g data-name="29.moon"><path fill="#ffa131" d="M59.66,21.32a1,1,0,0,0-.94-.35,8.84,8.84,0,0,1-1.43.11,8.67,8.67,0,0,1-8.67-8.69,8.46,8.46,0,0,1,.56-3.09,1,1,0,0,0-.15-1A1,1,0,0,0,48.09,8a10.65,10.65,0,0,0-8.93,10.52,9.87,9.87,0,0,0,.08,1.2h0v0s0,.07,0,.11a.93.93,0,0,0,0,.14.63.63,0,0,0,.2.36,1,1,0,0,0,.11.14,13.74,13.74,0,0,1,4,5.44,1,1,0,0,0,.07.11l.06.1a1,1,0,0,0,.21.21l0,0a1,1,0,0,0,.31.13h.1l.14,0,.1,0h.09a9,9,0,0,1,1.7-.16,9.47,9.47,0,0,1,5.93,2.06h0a1,1,0,0,0,.27.15h0a1,1,0,0,0,.64,0,10.62,10.62,0,0,0,6.5-6.26A1,1,0,0,0,59.66,21.32Z"/><path fill="#009ede" d="M53.32,28.56a1,1,0,0,1-.64,0h0a1,1,0,0,1-.27-.15h0a9.47,9.47,0,0,0-5.93-2.06,9,9,0,0,0-1.7.16h-.09l-.1,0-.14,0h-.1a1,1,0,0,1-.31-.13l0,0a1,1,0,0,1-.21-.21l-.06-.1a1,1,0,0,1-.07-.11,13.74,13.74,0,0,0-4-5.44,1,1,0,0,1-.11-.14.63.63,0,0,1-.2-.36.93.93,0,0,1,0-.14s0-.07,0-.11v0h0a9.87,9.87,0,0,1-.08-1.2c0-.26,0-.51,0-.76a15.62,15.62,0,0,0-22.34,6.72,11.22,11.22,0,0,0-1.3-.09,11.56,11.56,0,1,0,0,23.12H46.46a11.56,11.56,0,0,0,8.35-19.56A10.58,10.58,0,0,1,53.32,28.56Z"/><path fill="#0083ca" d="M53.32,28.56a1,1,0,0,1-.64,0h0a1,1,0,0,1-.27-.15h0a9.47,9.47,0,0,0-5.93-2.06,9,9,0,0,0-1.7.16h-.09l-.1,0-.14,0h-.1a1,1,0,0,1-.31-.13l0,0a1,1,0,0,1-.21-.21l-.06-.1a1,1,0,0,1-.07-.11,13.73,13.73,0,0,0-1.78-3.1l-.23.25A15.62,15.62,0,0,0,21.07,30.7a11.22,11.22,0,0,0-1.3-.09A11.52,11.52,0,0,0,8.59,45.11a11.5,11.5,0,0,0,7,2.35H46.46a11.56,11.56,0,0,0,8.35-19.56A10.58,10.58,0,0,1,53.32,28.56Z"/><path fill="#fff" d="M33.71 21A1 1 0 1 0 34.26 19a11.82 11.82 0 0 0-8.5.79 1 1 0 0 0 .9 1.79A9.82 9.82 0 0 1 33.71 21zM22.69 22.05l-.09.09q-.25.25-.48.52A1 1 0 0 0 23.64 24l.39-.43.07-.07a1 1 0 0 0-1.41-1.41zM18.9 28.24a8.44 8.44 0 0 0-9.85 2.23 1 1 0 0 0 1.53 1.29 6.36 6.36 0 0 1 6-2.15 6.29 6.29 0 0 1 1.46.45 1 1 0 1 0 .82-1.83zM8.44 33.35a1 1 0 0 0-1.19.77 8.48 8.48 0 0 0-.19 1.79 1 1 0 0 0 2 0 6.43 6.43 0 0 1 .15-1.37A1 1 0 0 0 8.44 33.35z"/><path d="M59.82,22.31A1,1,0,0,0,58.72,21a8.83,8.83,0,0,1-1.43.11,8.67,8.67,0,0,1-8.66-8.69,8.48,8.48,0,0,1,.56-3.09A1,1,0,0,0,48.1,8a10.64,10.64,0,0,0-8.89,9.75,15.61,15.61,0,0,0-22.32,6.72,11.24,11.24,0,0,0-1.3-.09,11.56,11.56,0,1,0,0,23.13,1,1,0,0,0,0-2,9.56,9.56,0,1,1,8.83-13.24,1,1,0,0,0,1.85-.77,11.62,11.62,0,0,0-7.36-6.62,13.62,13.62,0,0,1,20.74-4.38l0,0a13.53,13.53,0,0,1,3.49,4.35,11.62,11.62,0,0,0-7.36,6.62,1,1,0,0,0,1.85.77,9.56,9.56,0,1,1,8.83,13.24,1,1,0,1,0,0,2,11.56,11.56,0,0,0,8.35-19.56A10.62,10.62,0,0,0,59.82,22.31Zm-6.66,4.18a11.38,11.38,0,0,0-8-2.05,15.54,15.54,0,0,0-4-5.27c0-.24,0-.47,0-.69a8.65,8.65,0,0,1,5.65-8.13,10.87,10.87,0,0,0-.19,2A10.67,10.67,0,0,0,57.21,23.08,8.6,8.6,0,0,1,53.16,26.49Z"/><path d="M31.45 43.1H21a1 1 0 0 0 0 2h10.5a3.5 3.5 0 1 0-2.1-6.3 1 1 0 1 0 1.2 1.6 1.5 1.5 0 1 1 .9 2.7zM36.45 49.1H21a1 1 0 0 0 0 2h15.5a1.5 1.5 0 1 1-.9 2.7 1 1 0 1 0-1.2 1.6 3.5 3.5 0 1 0 2.1-6.3z"/><path d="M39.45,41.1a3.47,3.47,0,0,0-2.1.7,1,1,0,1,0,1.2,1.6,1.5,1.5,0,1,1,.9,2.7H21a1,1,0,0,0,0,2h18.5a3.5,3.5,0,0,0,0-7Z"/></g></svg>